<svg width="67.000000" height="25.000000" viewBox="0 0 67 25" fill="none" xmlns="http://www.w3.org/2000/svg" xmlns:xlink="http://www.w3.org/1999/xlink">
	<desc>
			Created with Pixso.
	</desc>
	<defs>
		<linearGradient id="paint_linear_35_8_0" x1="34.500000" y1="1.000000" x2="34.500000" y2="24.000000" gradientUnits="userSpaceOnUse">
			<stop stop-color="#24C6B0"/>
			<stop offset="1.000000" stop-color="#000D83"/>
		</linearGradient>
	</defs>
	<rect id="Rectangle 51" x="2.000000" y="1.000000" rx="11.500000" width="65.000000" height="23.000000" fill="#FFFFFF" fill-opacity="0.800000"/>
	<rect id="Rectangle 51" x="1.000000" rx="12.000000" width="67.000000" height="25.000000" stroke="url(#paint_linear_35_8_0)" stroke-opacity="1.000000" stroke-width="2.000000"/>
	<path id="buy now" d="M14.68 16L13.88 16L13.88 8.72L14.71 8.72L14.71 11.41L14.78 11.41C14.97 11.12 15.3 10.47 16.36 10.47C17.74 10.47 18.69 11.56 18.69 13.28C18.69 15.02 17.74 16.11 16.38 16.11C15.32 16.11 14.97 15.46 14.78 15.16L14.68 15.16L14.68 16ZM36.39 11.22C35.59 11.22 35 11.76 35 12.71L35 16L34.16 16L34.16 10.54L34.97 10.54L34.97 11.39L35.04 11.39C35.3 10.84 35.81 10.47 36.63 10.47C37.74 10.47 38.48 11.14 38.48 12.53L38.48 16L37.64 16L37.64 12.59C37.64 11.73 37.17 11.22 36.39 11.22ZM44.7 13.3C44.7 14.99 43.71 16.11 42.23 16.11C40.75 16.11 39.76 14.99 39.76 13.3C39.76 11.59 40.75 10.47 42.23 10.47C43.71 10.47 44.7 11.59 44.7 13.3ZM22 15.26C22.63 15.26 23.41 14.79 23.41 13.77L23.41 10.54L24.24 10.54L24.24 16L23.41 16L23.41 15.07L23.35 15.07C23.09 15.63 22.55 16.07 21.73 16.07C20.71 16.07 19.97 15.4 19.97 14.01L19.97 10.54L20.81 10.54L20.81 13.95C20.81 14.75 21.3 15.26 22 15.26ZM27.92 16.79C27.61 17.64 27.08 18.04 26.32 18.04C26.04 18.04 25.79 17.98 25.71 17.94L25.92 17.2C26.53 17.36 26.91 17.28 27.21 16.45L27.37 16.02L25.35 10.54L26.26 10.54L27.77 14.89L27.82 14.89L29.33 10.54L30.24 10.54L27.92 16.79ZM47.85 16L47.03 16L45.37 10.54L46.25 10.54L47.43 14.72L47.48 14.72L48.65 10.54L49.54 10.54L50.69 14.7L50.75 14.7L51.93 10.54L52.81 10.54L51.15 16L50.32 16L49.13 11.81L49.05 11.81L47.85 16ZM16.26 11.22C15.24 11.22 14.7 12.05 14.7 13.27C14.7 14.5 15.25 15.36 16.26 15.36C17.31 15.36 17.85 14.43 17.85 13.27C17.85 12.12 17.33 11.22 16.26 11.22ZM40.6 13.3C40.6 14.39 41.11 15.36 42.23 15.36C43.35 15.36 43.86 14.39 43.86 13.3C43.86 12.2 43.35 11.22 42.23 11.22C41.11 11.22 40.6 12.2 40.6 13.3Z" fill="#000000" fill-opacity="1.000000" fill-rule="evenodd"/>
</svg>
