<svg width="16" height="12" viewBox="0 0 16 12" fill="none" xmlns="http://www.w3.org/2000/svg">
<path d="M8.90642 0.319767C9.12074 0.11502 9.41138 0 9.71443 0C10.0175 0 10.3081 0.11502 10.5224 0.319767L15.6654 5.23444C15.8796 5.43925 16 5.71699 16 6.00659C16 6.29619 15.8796 6.57394 15.6654 6.77874L10.5224 11.6934C10.3069 11.8924 10.0182 12.0024 9.71855 12C9.41889 11.9975 9.13224 11.8826 8.92034 11.6801C8.70845 11.4776 8.58825 11.2037 8.58565 10.9173C8.58304 10.631 8.69824 10.3551 8.90642 10.1491L12.0002 7.09874H1.14287C0.839765 7.09874 0.549071 6.98368 0.33474 6.77886C0.12041 6.57404 0 6.29625 0 6.00659C0 5.71694 0.12041 5.43914 0.33474 5.23433C0.549071 5.02951 0.839765 4.91444 1.14287 4.91444H12.0002L8.90642 1.86407C8.69217 1.65926 8.5718 1.38152 8.5718 1.09192C8.5718 0.802318 8.69217 0.524575 8.90642 0.319767Z" fill="#7BE0F7"/>
</svg>
