<svg width="13.000000" height="13.000000" viewBox="0 0 13 13" fill="none" xmlns="http://www.w3.org/2000/svg" xmlns:xlink="http://www.w3.org/1999/xlink">
	<desc>
			Created with Pixso.
	</desc>
	<defs/>
	<path id="Vector" d="M6.5 0C2.91 0 0 2.91 0 6.5C0 10.08 2.91 13 6.5 13C10.08 13 13 10.08 13 6.5C13 2.91 10.08 0 6.5 0ZM9.3 6.29L8.12 7.25L8.61 8.73C8.67 8.93 8.61 9.15 8.44 9.27C8.27 9.4 8.04 9.41 7.87 9.3L6.5 8.41L5.16 9.31C5.08 9.36 4.98 9.39 4.88 9.39C4.78 9.39 4.67 9.35 4.58 9.29C4.41 9.17 4.34 8.94 4.41 8.74L4.88 7.25L3.69 6.29C3.54 6.15 3.48 5.94 3.55 5.74C3.62 5.55 3.81 5.42 4.01 5.42L5.5 5.42L6.03 4C6.1 3.81 6.29 3.68 6.5 3.68C6.7 3.68 6.89 3.81 6.96 4L7.49 5.42L8.98 5.42C9.18 5.42 9.37 5.55 9.44 5.74C9.51 5.94 9.45 6.16 9.3 6.29L9.3 6.29Z" fill="#008C44" fill-opacity="1.000000" fill-rule="nonzero"/>
</svg>
