<svg width="30.000000" height="30.000000" viewBox="0 0 30 30" fill="none" xmlns="http://www.w3.org/2000/svg" xmlns:xlink="http://www.w3.org/1999/xlink">
	<desc>
			Created with Pixso.
	</desc>
	<defs/>
	<path id="Vector" d="M14.23 -0.31C16.23 -0.31 18.14 0.48 19.56 1.9C20.97 3.31 21.76 5.23 21.76 7.23C21.76 9.23 20.97 11.14 19.56 12.56C18.14 13.97 16.23 14.76 14.23 14.76C12.23 14.76 10.31 13.97 8.9 12.56C7.48 11.14 6.69 9.23 6.69 7.23C6.69 5.23 7.48 3.31 8.9 1.9C10.31 0.48 12.23 -0.31 14.23 -0.31ZM14.23 29.84C14.23 29.84 29.3 29.84 29.3 26.07C29.3 21.55 21.95 16.65 14.23 16.65C6.5 16.65 -0.85 21.55 -0.85 26.07C-0.85 29.84 14.23 29.84 14.23 29.84Z" fill="#5E5D5D" fill-opacity="1.000000" fill-rule="evenodd"/>
</svg>
