<svg width="23.000000" height="32.000000" viewBox="0 0 23 32" fill="none" xmlns="http://www.w3.org/2000/svg" xmlns:xlink="http://www.w3.org/1999/xlink">
	<desc>
			Created with Pixso.
	</desc>
	<defs/>
	<path id="Vector" d="M21.44 7.61L18.81 7.61L18.81 8.95C18.81 10.44 17.63 11.65 16.18 11.65C14.73 11.65 13.54 10.44 13.54 8.95L13.54 7.61L8.28 7.61L8.28 8.95C8.28 10.44 7.1 11.65 5.64 11.65C4.19 11.65 3.01 10.44 3.01 8.95L3.01 7.61L0.39 7.61C0.39 21.07 -0.93 31.84 -0.93 31.84L22.76 31.84C22.76 31.84 21.44 21.07 21.44 7.61ZM5.65 10.31C6.38 10.31 6.96 9.71 6.96 8.96L6.96 6.27C6.96 4.03 8.73 2.23 10.91 2.23C13.1 2.23 14.86 4.03 14.86 6.27L14.86 8.96C14.86 9.71 15.45 10.31 16.18 10.31C16.9 10.31 17.49 9.71 17.49 8.96L17.49 6.27C17.5 2.55 14.55 -0.47 10.91 -0.47C7.28 -0.47 4.33 2.55 4.33 6.27L4.33 8.96C4.34 9.7 4.92 10.31 5.65 10.31Z" fill="#5E5D5D" fill-opacity="1.000000" fill-rule="evenodd"/>
</svg>
