<svg width="63.000000" height="63.000000" viewBox="0 0 63 63" fill="none" xmlns="http://www.w3.org/2000/svg" xmlns:xlink="http://www.w3.org/1999/xlink">
	<desc>
			Created with Pixso.
	</desc>
	<defs>
		<clipPath id="clip38_217">
			<rect id="Frame 2 (1) 1" width="62.461540" height="63.538460" transform="translate(-0.153748 -0.999695)" fill="white" fill-opacity="0"/>
		</clipPath>
	</defs>
	<rect id="Frame 2 (1) 1" width="62.461540" height="63.538460" transform="translate(-0.153748 -0.999695)" fill="#FFFFFF" fill-opacity="0"/>
	<g clip-path="url(#clip38_217)">
		<path id="Vector" d="M14.33 38.39C13.25 38.38 12.17 38.39 11.09 38.36C10.88 38.36 10.59 38.28 10.5 38.14C9.61 36.79 8.76 35.41 7.84 33.94C9.46 33.94 10.98 33.94 12.58 33.94C12.39 33.53 12.22 33.23 12.09 32.9C11.6 31.65 11.88 30.45 12.33 29.26C13.19 26.96 13.27 27.52 12.06 25.44C11.02 23.63 11.23 22.07 12.6 20.5C13.09 19.95 13.53 19.36 13.97 18.77C14.99 17.42 16.18 17.28 17.43 18.39C17.57 18.51 17.71 18.65 17.81 18.81C18.24 19.48 18.73 19.66 19.54 19.4C21.42 18.78 22.32 19.2 23.15 21.04C23.5 21.82 24.03 22.14 24.8 22.26C25.4 22.35 26.02 22.43 26.55 22.68C27.06 22.91 27.3 22.72 27.61 22.4C28.43 21.55 29.37 20.94 30.54 20.69C31.54 20.48 32.44 20.7 33.27 21.25C33.61 21.48 33.92 21.68 34.35 21.5C34.46 21.46 34.6 21.47 34.72 21.47C35.67 21.49 36.24 21.14 36.5 20.09C36.77 18.99 37.72 18.62 38.77 18.99C38.97 19.05 39.17 19.12 39.35 19.22C39.73 19.43 39.98 19.32 40.14 18.93C40.19 18.81 40.25 18.7 40.31 18.59C41.04 17.26 41.89 17.05 43.12 17.92C43.61 18.27 44.02 18.63 44.68 18.21C45.3 17.82 46.01 17.49 46.72 18.02C47.53 18.62 47.53 19.49 47.4 20.38C47.39 20.46 47.36 20.54 47.33 20.62C46.92 21.9 46.79 23.15 47.28 24.46C47.62 25.39 47.48 26.34 46.89 27.27C47.22 27.38 47.51 27.47 47.79 27.56C48.78 27.89 49.19 28.63 49.04 29.67C48.99 30.04 48.98 30.5 49.15 30.81C49.68 31.8 49.67 32.7 48.93 33.56C48.87 33.64 48.82 33.73 48.73 33.9C50.67 33.9 52.54 33.9 54.56 33.9C54.25 34.41 54.01 34.81 53.76 35.21C53.19 36.11 52.6 37.01 52.04 37.93C51.85 38.26 51.62 38.39 51.24 38.38C50.22 38.35 49.2 38.37 48.06 38.37C38.03 38.37 28.11 38.37 18.2 38.37C16.91 38.37 15.62 38.38 14.33 38.39ZM34.62 23.19C33.84 23.38 33.7 24.03 33.72 24.67C33.77 26.34 32.97 27.4 31.58 28.16C30.4 28.8 30.41 28.89 30.78 30.22C31.02 31.11 31.41 31.98 31.04 32.93C30.94 33.2 30.83 33.47 30.7 33.81C31.33 33.81 31.9 33.77 32.45 33.82C33.02 33.87 33.42 33.67 33.73 33.22C34.38 32.29 35.05 31.37 35.67 30.42C36.85 28.61 37.99 26.77 39.18 24.96C39.5 24.47 40.02 24.41 40.42 24.72C40.77 24.99 40.82 25.54 40.53 25.98C39.46 27.64 38.38 29.3 37.31 30.96C36.72 31.89 36.12 32.82 35.49 33.81C36.82 33.81 38.07 33.81 39.32 33.8C39.44 33.8 39.57 33.78 39.67 33.73C40.33 33.41 40.98 33.08 41.63 32.76C42.33 32.41 42.73 31.89 42.69 31.06C42.67 30.66 42.69 30.26 42.69 29.85C42.72 28.21 43.83 27.27 44.99 26.47C45.71 25.98 45.96 25.82 45.78 24.94C45.73 24.67 45.67 24.4 45.57 24.15C45.19 23.09 45.21 22.04 45.53 20.98C45.66 20.56 45.73 20.13 45.88 19.51C44.44 20.46 43.2 20.42 42.13 19.06C41.93 19.46 41.81 19.7 41.69 19.94C41.17 21.04 40.36 21.39 39.23 20.97C39.03 20.9 38.84 20.81 38.66 20.72C38.36 20.55 38.14 20.57 38.07 20.96C37.81 22.44 36.83 23.02 35.47 23.12C35.22 23.14 34.97 23.15 34.62 23.19ZM14.18 21.27C14.07 21.4 13.96 21.52 13.85 21.65C13.07 22.57 12.99 23.24 13.56 24.31C13.87 24.89 14.26 25.43 14.48 26.04C14.66 26.55 14.79 27.16 14.69 27.68C14.49 28.6 14.07 29.46 13.79 30.37C13.3 31.99 14 33.27 15.63 33.71C15.79 33.75 16.14 33.65 16.16 33.56C16.65 31.68 18.05 30.63 19.52 29.64C19.63 29.57 19.73 29.47 19.84 29.37C19.76 29.26 19.72 29.19 19.67 29.13C18.21 27.42 17.07 25.51 16.22 23.43C16 22.87 16.15 22.45 16.65 22.22C17.12 22 17.48 22.16 17.75 22.71C17.87 22.95 17.97 23.21 18.08 23.46C18.83 25.2 19.86 26.75 21.09 28.18C21.37 28.5 21.62 28.55 22.05 28.46C23.28 28.19 24.53 27.98 25.78 27.85C26.42 27.79 27.09 27.96 27.77 28.02C27.67 27.45 27.56 26.88 27.46 26.3C27.15 24.6 26.67 24.13 24.98 23.91C24.92 23.9 24.85 23.9 24.79 23.89C23.61 23.67 22.49 23.37 21.88 22.12C21.17 20.67 21.15 20.69 19.55 21.05C18.44 21.3 17.49 21.1 16.81 20.07C16.6 19.74 16.29 19.49 15.95 19.13C15.35 19.86 14.79 20.53 14.18 21.27ZM20.51 33.78C20.82 33.53 21.12 33.27 21.43 33.02C22.47 32.14 23.53 31.28 24.85 30.87C25.44 30.69 25.97 30.96 26.04 31.52C26.11 32.06 25.8 32.36 25.33 32.58C24.66 32.9 24.02 33.29 23.36 33.65C23.39 33.71 23.42 33.77 23.45 33.82C25.03 33.82 26.61 33.83 28.19 33.82C28.33 33.82 28.5 33.8 28.6 33.71C29.53 32.92 29.51 31.36 28.58 30.58C27.79 29.92 26.84 29.66 25.86 29.64C23.47 29.6 21.31 30.39 19.4 31.81C18.75 32.3 18.1 32.86 17.82 33.81C18.73 33.81 19.57 33.81 20.51 33.78ZM44.95 28.8C44.38 29.23 44.31 29.85 44.32 30.5C44.33 31.47 44.37 32.45 43.71 33.27C43.58 33.43 43.48 33.59 43.32 33.83C44.18 33.83 44.95 33.78 45.71 33.84C46.46 33.89 47.05 33.81 47.26 32.94C47.3 32.81 47.4 32.67 47.51 32.58C47.82 32.31 47.8 32.03 47.59 31.7C47.21 31.11 47.06 30.47 47.28 29.77C47.4 29.39 47.24 29.2 46.86 29.1C46.56 29.02 46.25 28.91 46.01 28.72C45.65 28.44 45.35 28.43 44.95 28.8ZM29.02 25.44C29.14 26.07 29.25 26.7 29.39 27.43C30.04 27.02 30.59 26.65 31.16 26.31C31.59 26.05 31.77 25.66 31.83 25.17C31.94 24.34 32.08 23.52 32.22 22.65C31.27 21.91 29.68 22.45 28.53 23.95C28.69 24.42 28.84 24.88 29.02 25.44Z" fill="#5E5D5D" fill-opacity="1.000000" fill-rule="nonzero"/>
		<path id="Vector" d="M47.81 38.77C47.71 38.91 47.63 39.1 47.5 39.19C44.49 41.22 41.47 43.25 38.44 45.25C38.2 45.42 37.87 45.51 37.58 45.51C33.33 45.53 29.09 45.53 24.85 45.51C24.57 45.51 24.26 45.45 24.03 45.3C21 43.29 17.98 41.27 14.96 39.24C14.82 39.15 14.71 38.99 14.64 38.82C23.95 38.79 33.19 38.79 42.43 38.79C44.22 38.79 46.02 38.78 47.81 38.77Z" fill="#5E5D5D" fill-opacity="1.000000" fill-rule="nonzero"/>
		<path id="Vector" d="M47.84 38.76C46.02 38.78 44.22 38.79 42.43 38.79C33.19 38.79 23.95 38.79 14.65 38.78C14.51 38.67 14.42 38.57 14.34 38.43C15.62 38.38 16.91 38.37 18.2 38.37C28.11 38.37 38.03 38.37 48 38.38C48 38.5 47.94 38.62 47.84 38.76Z" fill="#F7FFFF" fill-opacity="1.000000" fill-rule="nonzero"/>
		<path id="Vector" d="M34.67 23.18C34.97 23.15 35.22 23.14 35.47 23.12C36.83 23.02 37.81 22.44 38.07 20.96C38.14 20.57 38.36 20.55 38.66 20.72C38.84 20.81 39.03 20.9 39.23 20.97C40.36 21.39 41.17 21.04 41.69 19.94C41.81 19.7 41.93 19.46 42.13 19.06C43.2 20.42 44.44 20.46 45.88 19.51C45.73 20.13 45.66 20.56 45.53 20.98C45.21 22.04 45.19 23.09 45.57 24.15C45.67 24.4 45.73 24.67 45.78 24.94C45.96 25.82 45.71 25.98 44.99 26.47C43.83 27.27 42.72 28.21 42.69 29.85C42.69 30.26 42.67 30.66 42.69 31.06C42.73 31.89 42.33 32.41 41.63 32.76C40.98 33.08 40.33 33.41 39.67 33.73C39.57 33.78 39.44 33.8 39.32 33.8C38.07 33.81 36.82 33.81 35.49 33.81C36.12 32.82 36.72 31.89 37.31 30.96C38.38 29.3 39.46 27.64 40.53 25.98C40.82 25.54 40.77 24.99 40.42 24.72C40.02 24.41 39.5 24.47 39.18 24.96C37.99 26.77 36.85 28.61 35.67 30.42C35.05 31.37 34.38 32.29 33.73 33.22C33.42 33.67 33.02 33.87 32.45 33.82C31.9 33.77 31.33 33.81 30.7 33.81C30.83 33.47 30.94 33.2 31.04 32.93C31.41 31.98 31.02 31.11 30.78 30.22C30.41 28.89 30.4 28.8 31.58 28.16C32.97 27.4 33.77 26.34 33.72 24.67C33.7 24.03 33.84 23.38 34.67 23.18Z" fill="#FDFEFF" fill-opacity="1.000000" fill-rule="nonzero"/>
		<path id="Vector" d="M14.2 21.23C14.79 20.53 15.35 19.86 15.95 19.13C16.29 19.49 16.6 19.74 16.81 20.07C17.49 21.1 18.44 21.3 19.55 21.05C21.15 20.69 21.17 20.67 21.88 22.12C22.49 23.37 23.61 23.67 24.79 23.89C24.85 23.9 24.92 23.9 24.98 23.91C26.67 24.13 27.15 24.6 27.46 26.3C27.56 26.88 27.67 27.45 27.77 28.02C27.09 27.96 26.42 27.79 25.78 27.85C24.53 27.98 23.28 28.19 22.05 28.46C21.62 28.55 21.37 28.5 21.09 28.18C19.86 26.75 18.83 25.2 18.08 23.46C17.97 23.21 17.87 22.95 17.75 22.71C17.48 22.16 17.12 22 16.65 22.22C16.15 22.45 16 22.87 16.22 23.43C17.07 25.51 18.21 27.42 19.67 29.13C19.72 29.19 19.76 29.26 19.84 29.37C19.73 29.47 19.63 29.57 19.52 29.64C18.05 30.63 16.65 31.68 16.16 33.56C16.14 33.65 15.79 33.75 15.63 33.71C14 33.27 13.3 31.99 13.79 30.37C14.07 29.46 14.49 28.6 14.69 27.68C14.79 27.16 14.66 26.55 14.48 26.04C14.26 25.43 13.87 24.89 13.56 24.31C12.99 23.24 13.07 22.57 13.85 21.65C13.96 21.52 14.07 21.4 14.2 21.23Z" fill="#FDFEFF" fill-opacity="1.000000" fill-rule="nonzero"/>
		<path id="Vector" d="M20.46 33.8C19.57 33.81 18.73 33.81 17.82 33.81C18.1 32.86 18.75 32.3 19.4 31.81C21.31 30.39 23.47 29.6 25.86 29.64C26.84 29.66 27.79 29.92 28.58 30.58C29.51 31.36 29.53 32.92 28.6 33.71C28.5 33.8 28.33 33.82 28.19 33.82C26.61 33.83 25.03 33.82 23.45 33.82C23.42 33.77 23.39 33.71 23.36 33.65C24.02 33.29 24.66 32.9 25.33 32.58C25.8 32.36 26.11 32.06 26.04 31.52C25.97 30.96 25.44 30.69 24.85 30.87C23.53 31.28 22.47 32.14 21.43 33.02C21.12 33.27 20.82 33.53 20.46 33.8Z" fill="#FBFEFE" fill-opacity="1.000000" fill-rule="nonzero"/>
		<path id="Vector" d="M44.99 28.78C45.35 28.43 45.65 28.44 46.01 28.72C46.25 28.91 46.56 29.02 46.86 29.1C47.24 29.2 47.4 29.39 47.28 29.77C47.06 30.47 47.21 31.11 47.59 31.7C47.8 32.03 47.82 32.31 47.51 32.58C47.4 32.67 47.3 32.81 47.26 32.94C47.05 33.81 46.46 33.89 45.71 33.84C44.95 33.78 44.18 33.83 43.32 33.83C43.48 33.59 43.58 33.43 43.71 33.27C44.37 32.45 44.33 31.47 44.32 30.5C44.31 29.85 44.38 29.23 44.99 28.78Z" fill="#FCFEFF" fill-opacity="1.000000" fill-rule="nonzero"/>
		<path id="Vector" d="M29 25.39C28.84 24.88 28.69 24.42 28.53 23.95C29.68 22.45 31.27 21.91 32.22 22.65C32.08 23.52 31.94 24.34 31.83 25.17C31.77 25.66 31.59 26.05 31.16 26.31C30.59 26.65 30.04 27.02 29.39 27.43C29.25 26.7 29.14 26.07 29 25.39Z" fill="#FBFEFE" fill-opacity="1.000000" fill-rule="nonzero"/>
		<path id="MitHee" d="M24.42 48.82C24.26 48.65 24.05 48.57 23.8 48.57C23.56 48.57 23.36 48.65 23.19 48.82C23.02 48.99 22.94 49.2 22.94 49.45C22.94 49.69 23.02 49.9 23.19 50.07C23.36 50.24 23.56 50.32 23.8 50.32C24.05 50.32 24.26 50.24 24.42 50.07C24.6 49.9 24.69 49.69 24.69 49.45C24.69 49.2 24.6 48.99 24.42 48.82ZM32.37 52.27L32.37 48.75L30.82 48.81L30.82 56.97L32.37 56.97L32.37 53.51L35.58 53.51L35.58 56.97L37.13 56.97L37.13 48.81L35.58 48.81L35.58 52.27L32.37 52.27ZM15.63 51.99L17.59 54.5L18.19 54.41L19.71 52.27L19.71 56.97L21.28 56.97L21.28 48.81L20.34 48.81L17.83 52.58L15.07 48.81L14.08 48.81L14.08 56.97L15.63 56.97L15.63 51.99ZM29.14 57.1C29.38 57.04 29.56 56.95 29.69 56.85L29.23 55.72C29.12 55.78 29.01 55.82 28.91 55.84Q28.75 55.88 28.6 55.88C28.32 55.88 28.11 55.78 27.96 55.59C27.82 55.39 27.75 55.14 27.75 54.83L27.75 52.36L29.28 52.36L28.8 51.16L27.75 51.16L27.75 49.51L26.2 49.78L26.2 51.16L25.42 51.16L25.42 52.36L26.2 52.36L26.2 55.11Q26.2 55.9 26.58 56.42Q26.68 56.55 26.81 56.67C27.23 57.03 27.79 57.21 28.51 57.21C28.7 57.21 28.91 57.17 29.14 57.1ZM39.73 56.47Q40.57 57.11 41.9 57.11C42.15 57.11 42.46 57.07 42.85 56.97C43.24 56.87 43.57 56.72 43.84 56.51L43.39 55.39C43.11 55.51 42.86 55.61 42.64 55.69C42.44 55.75 42.2 55.78 41.94 55.78Q41.26 55.78 40.84 55.45Q40.84 55.45 40.83 55.45C40.55 55.21 40.38 54.91 40.3 54.52L44.23 54.52L44.23 54.04C44.23 53.22 44.01 52.51 43.58 51.91C43.16 51.3 42.49 50.99 41.58 50.99C40.67 50.99 39.96 51.27 39.43 51.83Q39.3 51.97 39.2 52.11Q38.65 52.89 38.65 54.07Q38.65 55.09 39.12 55.81Q39.28 56.07 39.51 56.29Q39.61 56.38 39.73 56.47ZM46.05 56.29C46.63 56.84 47.43 57.11 48.44 57.11C48.69 57.11 49 57.07 49.39 56.97C49.78 56.87 50.11 56.72 50.38 56.51L49.93 55.39C49.65 55.51 49.4 55.61 49.18 55.69C48.97 55.75 48.74 55.78 48.47 55.78Q47.8 55.78 47.38 55.45Q47.37 55.45 47.37 55.45C47.09 55.21 46.91 54.91 46.84 54.52L50.77 54.52L50.77 54.04Q50.77 53.08 50.37 52.32Q50.26 52.1 50.12 51.91C49.69 51.3 49.03 50.99 48.11 50.99Q47.1 50.99 46.4 51.46Q46.17 51.62 45.97 51.83C45.45 52.39 45.19 53.14 45.19 54.07C45.19 54.99 45.47 55.73 46.05 56.29ZM24.58 56.97L24.58 51.15L23.02 51.15L23.02 56.97L24.58 56.97ZM42.32 52.61C42.53 52.8 42.67 53.09 42.75 53.48L40.32 53.48C40.38 53.1 40.52 52.82 40.74 52.63C40.95 52.43 41.22 52.33 41.54 52.33C41.85 52.33 42.11 52.42 42.32 52.61ZM48.86 52.61Q49.17 52.89 49.29 53.48L46.85 53.48C46.92 53.1 47.06 52.82 47.27 52.63C47.49 52.43 47.76 52.33 48.08 52.33C48.39 52.33 48.65 52.42 48.86 52.61Z" fill="#5E5D5D" fill-opacity="1.000000" fill-rule="evenodd"/>
	</g>
</svg>
