<svg width="36.000000" height="36.000000" viewBox="0 0 36 36" fill="none" xmlns="http://www.w3.org/2000/svg" xmlns:xlink="http://www.w3.org/1999/xlink">
	<desc>
			Created with Pixso.
	</desc>
	<defs>
		<clipPath id="clip8_6">
			<rect id="Frame 6" width="36.000000" height="36.000000" fill="white" fill-opacity="0"/>
		</clipPath>
	</defs>
	<rect id="Frame 6" width="36.000000" height="36.000000" fill="#FFFFFF" fill-opacity="1.000000"/>
	<g clip-path="url(#clip8_6)">
		<path id="Vector" d="M22.01 11.89C21.42 11.29 20.71 10.81 19.94 10.49C19.17 10.16 18.34 9.99 17.5 10C16.66 9.99 15.84 10.16 15.06 10.49C14.29 10.81 13.59 11.29 13 11.89M27.24 27.14L34 34M27.24 27.14L34 " stroke="#5E5D5D" stroke-opacity="1.000000" stroke-width="2.000000" stroke-linejoin="round"/>
		<path id="Vector" d="M30 16.5C30 9.04 23.95 3 16.5 3C9.04 3 3 9.04 3 16.5C3 23.95 9.04 30 16.5 30C23.95 30 30 23.95 30 16.5Z" stroke="#5E5D5D" stroke-opacity="1.000000" stroke-width="2.000000" stroke-linejoin="round"/>
	</g>
</svg>
